mtllib Articuno.mtl
v 0 0.835184 0.339507
vt 0.192741 0.966784
vn 0 0.8538508 0.5205179
v 0.132078 0.816496 0.247831
vn 0.5292671 0.8447791 0.07889631
v 0 0.835184 0.156154
vn 0 0.9458263 -0.3246731
v 0.146062 0.715188 0.38158
vn 0.4988289 0.5549139 0.665763
v -0.132078 0.816496 0.247831
vn -0.5292671 0.8447791 0.07889631
v 0.0405979 0.62258 0.472303
vn 0.193204 0.292464 0.936556
v -0.146062 0.715188 0.38158
vn -0.4988289 0.5549139 0.665763
v -0.0405979 0.62258 0.472303
vn -0.193204 0.292464 0.936556
v 0.144807 0.753976 0.0994951
vn 0.5798923 0.6114653 -0.5383633
v 0.212806 0.703788 0.247831
vn 0.9215735 0.3824972 0.06631954
v -0.212806 0.703788 0.247831
vn -0.9215735 0.3824972 0.06631954
v -0.144807 0.753976 0.0994951
vn -0.579892 0.611466 -0.538363
v 0 0.500513 0.451005
vn 0 -0.473001 0.8810619
v 0.184099 0.631288 0.363364
vn 0.8557377 0.07867307 0.5113938
v 0 0.742427 0.0289157
vn 0 0.566545 -0.8240309
v 0.213707 0.62258 0.112534
vn 0.8718599 0.0230855 -0.4892109
v 0.0894955 0.62258 0.0078186
vn 0.363303 0.00304449 -0.9316661
v -0.184099 0.631288 0.363364
vn -0.8557377 0.07867307 0.5113938
v -0.0983931 0.428121 0.359509
vn -0.3892232 -0.7281223 0.5642192
v 0 0.388446 0.339507
vn 0 -0.955714 0.294297
v -0.0876208 0.504291 0.417059
vn -0.461058 -0.351343 0.8148519
v 0.0983931 0.428121 0.359509
vn 0.3892232 -0.7281223 0.5642192
v 0.0876208 0.504291 0.417059
vn 0.461058 -0.351343 0.8148519
v 0.234302 0.541373 0.247831
vn 0.9748689 -0.222537 0.0103904
v 0.174367 0.508069 0.355128
vn 0.7624179 -0.337388 0.5521669
v -0.0894955 0.62258 0.0078186
vn -0.363303 0.00304452 -0.9316661
v 0.144807 0.469653 0.0994952
vn 0.577464 -0.5707341 -0.583779
v 0 0.481203 0.0289159
vn 0 -0.5306112 -0.8476154
v -0.234302 0.541373 0.247831
vn -0.9748689 -0.222537 0.0103904
v -0.213707 0.62258 0.112534
vn -0.8718603 0.02308551 -0.4892102
v -0.174367 0.508069 0.355128
vn -0.7624179 -0.337388 0.5521669
v 0.159716 0.407134 0.247831
vn 0.55896 -0.8270109 -0.06014009
v -0.159716 0.407134 0.247831
vn -0.55896 -0.8270109 -0.06014009
v 0 0.388446 0.156154
vn 0 -0.9499253 -0.3124771
v -0.144807 0.469653 0.0994952
vn -0.577464 -0.5707341 -0.583779
v 0 0.259321 -0.236606
vt 0.938745 0.556661
vn 0 0.6980379 -0.7160609
v -0.1631418 0.3948712 -0.07941325
vn 0.2487514 0.8299869 -0.499244
v 0 0.385664 -0.105599
vn 0 0.861939 -0.507012
v -0.182848 0.225561 -0.194513
vn -0.7714918 0.03692449 -0.6351668
v 0.1631417 0.3948711 -0.07941306
vn -0.2487517 0.8299869 -0.4992439
v 0 0.178105 -0.335651
vn 0 -0.5551538 -0.8317477
v 0.182848 0.225561 -0.194513
vn 0.7714918 0.03692499 -0.6351668
v 0 0.422352 0.0596821
vn 0 0.9958669 -0.09082449
v -0.1061156 0.4003851 0.0665528
vn -0.04944071 0.9602074 0.2748772
v -0.182848 0.144341 -0.120132
vn -0.8170163 -0.5186142 -0.2520391
v 0.182848 0.144341 -0.120132
vn 0.8170374 -0.5185692 -0.2520631
v 0 0.424088 0.174622
vn 0 0.9368705 0.3496768
v -0.106118 0.328075 0.162063
vn -0.7377146 0.2672009 0.6199846
v 0.1061156 0.4003851 0.0665528
vn 0.04944055 0.9602073 0.2748773
v 0 0.0703746 -0.0774444
vn -0.0001719301 -0.9308863 -0.3653091
v 0.106118 0.328075 0.162063
vn 0.7377141 0.2672011 0.6199851
v 0 0.170534 0.205173
vt 0 0.191075
vn 0 -0.6532512 0.7571413
v -0.110174 0.206353 0.126681
vt -0.529077 0.177283
vn -0.5339121 -0.4405741 0.7216871
v 0 0.124493 0.127404
vt 0 0.00485347
vn -2.145421E-05 -0.7071233 0.7070903
v -0.0759188 0.25499 0.187507
vt -0.364576 0.349657
vn -0.6455731 -0.233458 0.7271401
v 0.110174 0.206353 0.126681
vt 0.529077 0.177283
vn 0.5339121 -0.4405741 0.7216871
v 0 0.283618 0.241748
vt 0 0.472167
vn 0 -0.1910019 0.9815897
v 0.0759188 0.25499 0.187507
vt 0.364577 0.349657
vn 0.6455731 -0.233458 0.7271401
v -0.204964 0.216381 0.0747951
vt -0.598696 0.139276
vn -0.923551 -0.162372 0.347403
vt -0.5096 0.475293
vt 0.509601 0.475293
v 0.204964 0.216381 0.0747952
vt 0.598696 0.139276
vn 0.9235329 -0.162381 0.347447
v -0.0415076 0.372743 0.230663
vt -0.199327 0.648142
vn -0.5237979 0.4323659 0.7339588
v 0.0415076 0.372743 0.230663
vt 0.199328 0.648142
vn 0.5237982 0.4323662 0.7339584
vt 0 1.00266
v 0 0.190691 -0.721835
vt 0.758855 0.793436
vn 0 0.9999552 0.009470552
v 0.0946301 0.231282 -0.546373
vt 0.926074 0.727684
vn 0.223023 0.9703262 -0.09342282
v 0.127679 0.165072 -0.717143
vt 0.966526 0.791678
vn 0.2038941 0.9789723 0.006357722
v 0 0.253721 -0.528
vt 0.758855 0.720799
vn 0 0.996672 0.0815173
v 0 0.24787 -0.936295
vt 0.758855 0.873803
vn 0 0.9998798 -0.0155085
v -0.0946301 0.231282 -0.546373
vt 0.591636 0.727684
vn -0.223023 0.9703262 -0.09342282
v -0.127679 0.165072 -0.717143
vt 0.551184 0.791678
vn -0.2038941 0.9789723 0.006357682
v 0 0.176023 -0.350516
vt 0.758855 0.654288
vn 0 0.9160658 0.4010279
v 0.129071 0.219515 -0.941312
vt 0.96879 0.875683
vn 0.214921 0.9765831 0.009721462
v -0.129071 0.219515 -0.941312
vt 0.54892 0.875683
vn -0.214921 0.9765831 0.009721482
v 0 0.1821 -1.2145
vt 0.758855 0.978058
vn 0 0.9731752 -0.2300651
v 0 0.179834 -0.717143
vt 0.758855 0.791678
vn 0 -0.9997501 0.0223564
vn -0.1109511 -0.9937584 -0.0115779
v 0 0.242201 -0.534702
vt 0.758855 0.72331
vn 0 -0.9999087 -0.0135118
vn -0.09322838 -0.9949497 -0.03719519
vn 0.1109511 -0.9937584 -0.0115779
v 0 0.231038 -0.939292
vt 0.758855 0.874925
vn 0 -0.9999995 0.001021089
vn 0.09322838 -0.9949497 -0.03719519
vn -0.102551 -0.9901888 0.09491888
vn 0 -0.9845551 0.175075
vn 0.102551 -0.9901888 0.09491888
vn 0 -0.9410966 -0.3381379
v -0.0993543 0.008435885 0
vt 0.911475 0.0811771
vn -0.3492749 -0.9092187 0.2265579
vt 0.937106 0.263908
vt 0.88423 0.274945
vt 0.937107 0.261133
vt 0.889935 0.265138
v 0.0993346 0.008317155 0
vt 0.962733 0.0810665
vn 0.3025661 -0.9529642 -0.017691
vt 0.989983 0.274945
vt 0.984278 0.265138
v 0 0.530123 0.511523
vt 0.437589 0.970655
vn 0 0.3300872 0.9439505
vt 0.448411 0.967276
vn -0.7436402 0.2389141 0.6244352
v 0 0.424284 0.511206
vt 0.429487 0.966425
vn 0 -0.002995549 0.9999955
v 0 0.610498 0.442319
vt 0.445692 0.974884
vn 0 0.6524789 0.7578069
vn 0.7436402 0.2389141 0.6244352
v 0.234583 0.749218 0.400883
vt 0.931707 0.825558
vn 0.8708395 -0.3664068 0.3276958
v 0.162067 0.746112 0.302452
vt 0.931707 0.824331
vn 0.143165 -0.72593 -0.6727031
v 0.324131 0.97424 0.119594
vt 0.931707 0.914423
vn 0.5104473 0.6482583 -0.5649822
v 2.19122E-06 0.574695 0.503235
vt 0.931707 0.756635
vn 0.2187 -0.3580739 0.9077188
v 0.162067 0.833608 0.451645
vt 0.931707 0.858885
vn 0.105588 0.6115863 0.7841004
v 0.08955 0.830502 0.353213
vt 0.931707 0.857658
vn -0.7193351 0.69319 0.0452175
v -0.234579 0.749218 0.400883
vn -0.8708393 -0.3664071 0.3276961
v -0.324127 0.97424 0.119594
vn -0.5104461 0.6482592 -0.5649821
v -0.162062 0.746112 0.302452
vn -0.143165 -0.72593 -0.6727031
v -0.162062 0.833608 0.451645
vn -0.105588 0.6115869 0.7840999
vn -0.2186999 -0.3580748 0.9077185
v -0.0895456 0.830502 0.353213
vn 0.7193351 0.69319 0.0452178
v 2.19345E-06 1.09653 0.0643464
vt 0.931707 0.962719
vn 0 0.7661047 -0.6427158
vn 0.9546916 0.2337389 0.1842009
v 2.19345E-06 0.769168 0.246831
vt 0.931707 0.833436
vn 0 -0.486896 -0.87346
v 2.19345E-06 0.893406 0.458675
vt 0.931707 0.8825
vn 0 0.6235141 0.7818121
vn -0.9546916 0.2337389 0.1842009
vn 0 0.1384641 0.9903675
v 0 0.424127 0.357286
vt 0.449681 0.963133
vn -0.6747359 -0.7380589 0.0007536258
vn 0.6747359 -0.7380589 0.0007536258
vn 0 -0.7967509 -0.6043079
vn 0.0936378 -0.79325 -0.601653
vn -0.0936378 -0.79325 -0.601653
vn -0.3233928 0.6761147 -0.6620317
vn 0.3233931 0.6761152 -0.6620312
o merged_0_0_node
g polygon_0
usemtl mat_body1_mat_id
f 1/1/1 2/1/2 3/1/3
f 1/1/1 4/1/4 2/1/2
f 1/1/1 3/1/3 5/1/5
f 1/1/1 6/1/6 4/1/4
f 1/1/1 5/1/5 7/1/7
f 1/1/1 8/1/8 6/1/6
f 1/1/1 7/1/7 8/1/8
f 2/1/2 9/1/9 3/1/3
f 2/1/2 4/1/4 10/1/10
f 2/1/2 10/1/10 9/1/9
f 5/1/5 11/1/11 7/1/7
f 5/1/5 3/1/3 12/1/12
f 5/1/5 12/1/12 11/1/11
f 6/1/6 8/1/8 13/1/13
f 4/1/4 14/1/14 10/1/10
f 9/1/9 15/1/15 3/1/3
f 9/1/9 10/1/10 16/1/16
f 9/1/9 17/1/17 15/1/15
f 9/1/9 16/1/16 17/1/17
f 3/1/3 15/1/15 12/1/12
f 7/1/7 11/1/11 18/1/18
f 13/1/13 19/1/19 20/1/20
f 13/1/13 21/1/21 19/1/19
f 13/1/13 20/1/20 22/1/22
f 13/1/13 22/1/22 23/1/23
f 14/1/14 24/1/24 10/1/10
f 14/1/14 25/1/25 24/1/24
f 10/1/10 24/1/24 16/1/16
f 23/1/23 22/1/22 25/1/25
f 17/1/17 26/1/26 15/1/15
f 17/1/17 16/1/16 27/1/27
f 17/1/17 28/1/28 26/1/26
f 17/1/17 27/1/27 28/1/28
f 16/1/16 24/1/24 27/1/27
f 15/1/15 26/1/26 12/1/12
f 11/1/11 29/1/29 18/1/18
f 11/1/11 12/1/12 30/1/30
f 11/1/11 30/1/30 29/1/29
f 12/1/12 26/1/26 30/1/30
f 21/1/21 31/1/31 19/1/19
f 18/1/18 29/1/29 31/1/31
f 20/1/20 32/1/32 22/1/22
f 20/1/20 19/1/19 33/1/33
f 20/1/20 34/1/34 32/1/32
f 20/1/20 33/1/33 34/1/34
f 32/1/32 24/1/24 25/1/25
f 32/1/32 34/1/34 27/1/27
f 32/1/32 25/1/25 22/1/22
f 32/1/32 27/1/27 24/1/24
f 31/1/31 29/1/29 33/1/33
f 31/1/31 33/1/33 19/1/19
f 27/1/27 34/1/34 28/1/28
f 26/1/26 35/1/35 30/1/30
f 26/1/26 28/1/28 35/1/35
f 35/1/35 33/1/33 29/1/29
f 35/1/35 34/1/34 33/1/33
f 35/1/35 29/1/29 30/1/30
f 35/1/35 28/1/28 34/1/34
f 36/2/36 37/2/37 38/2/38
f 36/2/36 39/2/39 37/2/37
f 36/2/36 38/2/38 40/2/40
f 36/2/36 41/2/41 39/2/39
f 36/2/36 40/2/40 42/2/42
f 36/2/36 42/2/42 41/2/41
f 37/2/37 43/2/43 38/2/38
f 37/2/37 44/2/44 43/2/43
f 38/2/38 43/2/43 40/2/40
f 39/2/39 41/2/41 45/2/45
f 42/2/42 46/2/46 41/2/41
f 44/2/44 47/2/47 43/2/43
f 44/2/44 48/2/48 47/2/47
f 40/2/40 43/2/43 49/2/49
f 43/2/43 47/2/47 49/2/49
f 45/2/45 41/2/41 50/2/50
f 50/2/50 41/2/41 46/2/46
f 47/2/47 51/2/51 49/2/49
f 52/3/52 53/4/53 54/5/54
f 52/3/52 55/6/55 53/4/53
f 52/3/52 54/5/54 56/7/56
f 52/3/52 57/8/57 55/6/55
f 52/3/52 56/7/56 58/9/58
f 52/3/52 58/9/58 57/8/57
f 53/4/53 59/10/59 54/5/54
f 53/4/53 55/6/55 48/11/48
f 53/4/53 48/11/48 59/10/59
f 56/7/56 51/12/51 58/9/58
f 56/7/56 54/5/54 60/13/60
f 56/7/56 60/13/60 51/12/51
f 57/8/57 61/14/61 55/6/55
f 57/8/57 58/9/58 62/15/62
f 57/8/57 62/15/62 61/14/61
f 58/9/58 51/12/51 62/15/62
f 55/6/55 61/14/61 48/11/48
f 51/12/51 47/16/47 62/15/62
f 47/16/47 48/11/48 61/14/61
f 47/16/47 61/14/61 62/15/62
f 63/17/63 64/18/64 65/19/65
f 63/17/63 66/20/66 64/18/64
f 63/17/63 65/19/65 67/21/67
f 63/17/63 68/22/68 66/20/66
f 63/17/63 67/21/67 69/23/69
f 63/17/63 69/23/69 68/22/68
f 64/18/64 66/20/66 70/24/70
f 70/24/70 66/20/66 68/22/68
f 65/19/65 71/25/71 67/21/67
f 69/23/69 67/21/67 72/26/72
f 71/25/71 73/27/73 67/21/67
f 67/21/67 73/27/73 72/26/72
f 74/28/74 65/19/75 75/29/76
f 74/28/74 71/25/77 65/19/75
f 74/28/74 75/29/76 69/23/78
f 74/28/74 76/30/79 71/25/77
f 74/28/74 69/23/78 72/26/80
f 74/28/74 72/26/80 76/30/79
f 65/19/75 64/18/81 75/29/76
f 71/25/77 76/30/79 73/27/82
f 73/27/82 76/30/79 72/26/80
f 69/23/78 75/29/76 68/22/83
f 64/18/81 70/24/84 75/29/76
f 75/29/76 70/24/84 68/22/83
f 77/31/85 54/32/54 59/33/59
f 77/31/85 50/34/50 54/32/54
f 77/31/85 59/33/59 45/35/45
f 77/31/85 45/35/45 50/34/50
f 54/32/54 50/34/50 78/36/86
f 54/32/54 78/36/86 60/37/60
f 50/34/50 46/38/46 78/36/86
f 78/36/86 46/38/46 60/37/60
f 79/39/87 21/40/88 80/41/89
f 79/39/87 81/42/90 21/40/88
f 79/39/87 80/41/89 23/40/91
f 79/39/87 23/40/91 81/42/90
f 82/43/92 83/44/93 84/45/94
f 82/43/92 85/46/95 83/44/93
f 82/43/92 84/45/94 86/47/96
f 82/43/92 86/47/96 85/46/95
f 83/44/93 87/48/97 84/45/94
f 87/48/97 86/47/96 84/45/94
f 87/48/97 85/46/95 86/47/96
f 88/43/98 89/45/99 90/44/100
f 88/43/98 91/47/101 89/45/99
f 88/43/98 90/44/100 85/46/102
f 88/43/98 85/46/102 91/47/101
f 89/45/99 92/48/103 90/44/100
f 89/45/99 91/47/101 92/48/103
f 92/48/103 91/47/101 85/46/102
f 93/49/104 87/48/105 94/50/106
f 93/49/104 95/51/107 87/48/105
f 93/49/104 94/50/106 92/48/108
f 93/49/104 92/48/108 95/51/107
f 87/48/105 95/51/107 85/46/109
f 85/46/109 95/51/107 92/48/108
f 96/52/79 80/41/79 21/40/110
f 96/52/79 23/40/111 80/41/79
f 85/46/112 94/50/112 83/44/113
f 85/46/112 90/44/114 94/50/112
f 90/44/115 92/48/115 94/50/115
f 94/50/116 87/48/116 83/44/116
vt 0.317241 -0.0189503
vt 0.10838 -0.0262023
v -0.2026205 0.3315422 -0.04741562
vt 0.300328 0.565354
vn -0.8277437 -0.5314825 0.1799076
vt 0.00276774 0.677689
vt 0.061945 1.17657
vt 0.110335 0.639091
v -0.523146 0.5354793 -0.1569789
vt 0.902872 0.429642
vn -0.8363844 0.3932847 -0.3818223
vt 0.145437 0.530145
v -0.3459496 0.353947 -0.1984032
vt 0.608236 0.140952
vn -0.3710651 -0.2456381 -0.8955293
v -0.2247304 0.3672909 0.09795731
vt 0.335539 0.732555
vn -0.6012526 -0.02848943 0.798551
vt 0.286272 1.06637
vt 0.107154 0.856573
v 0.2247304 0.3672909 0.09795731
vn 0.6012526 -0.02848999 0.798551
v 0.5231459 0.5354795 -0.1569789
vn 0.8363841 0.3932835 -0.3818243
v 0.2026205 0.3315422 -0.04741563
vn 0.8277435 -0.5314826 0.1799076
v 0.3459496 0.353947 -0.1984033
vn 0.3710644 -0.2456369 -0.8955299
o merged_1_0_node
g polygon_0
usemtl mat_wing1_mat_id
f 39/53/39 45/54/45 97/55/117
f 97/55/117 45/54/45 59/56/59
f 48/57/48 97/55/117 59/56/59
f 37/58/37 98/59/118 44/60/44
f 98/59/118 37/58/37 99/61/119
f 99/61/119 37/58/37 39/53/39
f 44/60/44 98/59/118 100/62/120
f 48/57/48 100/63/120 97/55/117
f 98/59/118 99/61/119 97/55/117
f 97/55/117 99/61/119 39/53/39
f 44/60/44 100/62/120 48/64/48
f 97/55/117 100/63/120 98/59/118
f 51/64/51 101/62/121 49/60/49
f 102/59/122 103/55/123 104/61/124
f 104/61/124 103/55/123 42/53/42
f 49/60/49 102/59/122 40/58/40
f 102/59/122 104/61/124 40/58/40
f 40/58/40 104/61/124 42/53/42
f 60/56/60 103/55/123 51/57/51
f 42/53/42 103/55/123 46/54/46
f 46/54/46 103/55/123 60/56/60
f 101/63/121 103/55/123 102/59/122
f 49/60/49 101/62/121 102/59/122
f 51/57/51 103/55/123 101/63/121
vt 1.00302 0.922462
v -0.112785 0.626934 0.431826
vt 0.552056 0.916589
vn -0.5750537 -0.001841249 0.8181136
vt 0.762488 1.03563
vt 0.0955647 0.910717
v 0.112785 0.626934 0.431826
vn 0.5750537 -0.001841209 0.8181136
vt 0.941479 0.756263
vt 0.392923 0.751167
vt -0.161164 0.746071
o merged_2_0_node
g polygon_0
usemtl TEX_ANIM_EYE_mat_id
f 18/65/18 105/66/125 7/67/7
f 7/67/7 105/66/125 8/68/8
f 6/68/6 106/66/126 4/67/4
f 4/67/4 106/66/126 14/65/14
f 14/65/14 106/66/126 25/69/25
f 25/69/25 106/66/126 23/70/23
f 13/71/13 23/70/23 6/68/6
f 106/66/126 6/68/6 23/70/23
f 18/65/18 31/69/31 105/66/125
f 31/69/31 21/70/21 105/66/125
f 13/71/13 8/68/8 21/70/21
f 21/70/21 8/68/8 105/66/125
