mtllib Torchic_M.mtl
v 0 0.546216 0.000827843
vt 0.758154 0.63281
vn 0 0.3119889 0.9500858
v -0.106819 0.633281 -0.0685169
vt 0.981531 0.913135
vn -0.1937529 0.4546788 0.8693256
v -0.0703225 0.5289479 -0.0234129
vt 0.959483 0.548755
vn -0.3670461 0.2292011 0.9015232
v -0.037273 0.612947 -0.0597261
vt 0.850845 0.803498
vn -0.1596439 0.6129979 0.7737877
v 0 0.506194 -0.00149478
vt 0.758154 0.485607
vn 0 -0.05793562 0.9983203
v 0 0.693614 -0.0945992
vt 0.758154 0.987877
vn 0 0.5434601 0.839435
v 0.0703225 0.5289479 -0.0234129
vn 0.3670461 0.2292011 0.9015232
v 0.037273 0.612947 -0.0597261
vn 0.1596441 0.6129983 0.7737874
v 0.106819 0.633281 -0.0685169
vn 0.1937531 0.4546792 0.8693253
v 0 0.5191109 -0.0508664
vn 0 -0.5908549 -0.8067778
vn -0.182781 -0.3149919 -0.9313277
vn -0.155752 -0.153991 -0.9757193
vn -0.368602 -0.5560641 -0.7449331
vn 0 -0.2430949 -0.9700025
vn 0 -0.9674391 -0.253104
vn 0.155752 -0.153991 -0.9757193
vn 0.3686029 -0.5560639 -0.7449328
vn 0.182781 -0.3149919 -0.9313277
v -0.0392289 0.0340988 -0.0315418
vt 0.874185 0.122569
vn -0.1863999 -0.9107466 -0.3685048
v 0.0537711 0.0645246 -0.111357
vt 0.925585 0.202495
vn 0.5257801 -0.6615172 -0.5347431
v 0.0392289 0.0340988 -0.0315417
vn 0.1863999 -0.9107466 -0.3685048
v -0.053771 0.0645246 -0.111357
vn -0.5257798 -0.6615177 -0.5347428
v 0 0.0286711 -0.00123433
vt 0.854668 0.11222
vn 0 -0.9999937 -0.003533849
v -0.113052 0.0645246 0
vt 0.853873 0.202495
vn -0.9098383 -0.4146321 0.01656811
v -0.0375726 0.0001623983 -0.00123434
vt 0.854668 0.0346072
vn -0.005359479 -0.9996758 -0.02489229
v -0.0705523 0.0340988 -0.001384
vt 0.854764 0.122569
vn -0.5170912 -0.8555773 0.02458101
v 0.113052 0.0645246 0
vn 0.9098383 -0.4146321 0.01656851
v 0.0597257 0.123762 -0.116617
vt 0.928973 0.315438
vn 0.6277449 0.3115419 -0.7133569
v -0.0597257 0.123762 -0.116617
vn -0.6277449 0.3115419 -0.7133569
v -0.0392289 0.0340988 0.0238084
vt 0.838541 0.122569
vn -0.1661671 -0.8301432 0.5322132
v 0.0375726 0.0001623983 -0.00123433
vn 0.005359299 -0.9996758 -0.02489209
v 0.0392289 0.0340988 0.0238084
vn 0.1661671 -0.8301432 0.5322132
v 0.119451 0.123762 0
vt 0.853873 0.315438
vn 0.9940014 0.1090979 -0.007666346
v 0.0469164 0.193257 -0.0769768
vt 0.903445 0.447937
vn 0.4158111 0.6396961 -0.6464441
v 0.0705523 0.0340988 -0.00138399
vn 0.5170912 -0.8555773 0.02458121
v -0.055093 0.070617 0.0808953
vt 0.801778 0.214111
vn -0.3783038 -0.5307438 0.7584177
v -0.119451 0.123762 0
vn -0.9940014 0.1090981 -0.007666624
v 0.0938327 0.193257 0
vt 0.853873 0.447937
vn 0.8017509 0.5968499 -0.03107679
v -0.0469163 0.193257 -0.0769768
vn -0.4158111 0.6396961 -0.6464441
v 0 0.20523 0
vt 0.853873 0.470764
vn 0 1 0
v 0.055093 0.070617 0.0808953
vn 0.3783029 -0.530744 0.7584179
v 0.0469163 0.193257 0.074946
vt 0.805609 0.447937
vn 0.4142791 0.6782492 0.6069192
v -0.0938327 0.193257 0
vn -0.8017513 0.5968493 -0.03107701
v -0.0597257 0.137978 0.110525
vt 0.782697 0.342541
vn -0.4515092 0.06397073 0.8899704
v -0.0469164 0.193257 0.0749459
vn -0.4142791 0.6782492 0.6069192
v 0.0597257 0.137978 0.110525
vn 0.4515092 0.06397083 0.8899704
v 0.117926 0.430455 -0.117926
vt 0.0155628 0.281126
vn 0.5424058 0.6485267 -0.5340497
v 0.174036 0.330961 -0.10756
vn 0.8509597 0.001811909 -0.5252278
v 0.072882 0.330961 -0.190808
vn 0.3612569 -0.00104935 -0.9324657
v 0.190808 0.387309 0
vn 0.9141983 0.4052671 0
v 0 0.418611 -0.174036
vn 0 0.5836159 -0.8120298
v 0.10756 0.470554 0
vn 0.518384 0.855148 0
v 0 0.489718 -0.072882
vn 0 0.92366 -0.383213
v 0.117926 0.239335 -0.117926
vn 0.5100939 -0.6895809 -0.5140839
v 0.190808 0.271247 0
vn 0.8969332 -0.4421661 0
v -0.117926 0.430455 -0.117926
vn -0.5424058 0.6485267 -0.5340497
v -0.072882 0.330961 -0.190808
vn -0.3612569 -0.00104929 -0.9324657
v 0.117926 0.430455 0.117926
vn 0.538062 0.636257 0.552871
v 0 0.500103 0
v 0 0.489718 0.072882
vn 0 0.92366 0.383213
v 0.10756 0.205801 0
vn 0.3769781 -0.9262222 0
v 0.174036 0.330961 0.10756
vn 0.839488 0.00151529 0.543376
v 0.117926 0.239335 0.117926
vn 0.5042648 -0.6781947 0.5345737
v 0 0.24553 -0.174036
vn 0 -0.6348958 -0.7725978
v -0.10756 0.470554 0
vn -0.518384 0.855148 0
v -0.174036 0.330961 -0.10756
vn -0.8509597 0.001811819 -0.5252278
v -0.190808 0.387309 0
vn -0.9141983 0.4052671 0
v 0 0.195777 0.072882
vn 0 -0.9728109 0.231601
v 0 0.195777 -0.072882
vn 0 -0.9728109 -0.231601
v 0 0.418611 0.174036
vn 0 0.5751863 0.8180224
v -0.117926 0.239335 -0.117926
vn -0.5100942 -0.6895813 -0.5140833
v -0.117926 0.430455 0.117926
vn -0.538062 0.636257 0.552871
v -0.190808 0.271247 0
vn -0.8969332 -0.4421661 0
v -0.174036 0.330961 0.10756
vn -0.839488 0.00151533 0.543376
v 0 0.24553 0.174036
vn 0 -0.6468967 0.7625777
v -0.10756 0.205801 0
vn -0.3769781 -0.9262222 0
v -0.117926 0.239335 0.117926
vn -0.5042644 -0.6781945 0.5345743
v -0.111374 0.196816 0.0148033
vt 0.918062 0.826613
vn -0.235172 0.971644 0.0245387
v -0.0824251 0.196641 0.0766313
vt 0.878154 0.786705
vn -0.206537 0.959549 0.191333
v -0.0565056 0.202147 0.0295892
vt 0.878154 0.826613
vn -0.110185 0.992801 0.0469637
v -0.124858 0.175666 0.0723759
vt 0.918062 0.786705
vn -0.4500488 0.8671895 0.2131629
v -0.048172 0.20528 -0.0309606
vt 0.878154 0.906428
vn -0.07498491 0.989293 -0.125206
v -0.0981466 0.196641 -0.049488
vt 0.918062 0.906428
vn -0.1806751 0.9685823 -0.1708941
v -0.153384 0.178378 -0.0209539
vt 0.918062 0.86652
vn -0.3473141 0.9348254 -0.07398993
v -0.0213691 0.20329 0.0842074
vt 0.838246 0.826613
vn -0.133853 0.9630719 0.233615
v -0.0646987 0.177821 0.126588
vt 0.838246 0.786705
vn -0.1476779 0.9071085 0.3941388
v -0.038442 0.196641 -0.0726575
vt 0.878154 0.946336
vn -0.03867279 0.9663637 -0.2542549
v -0.102732 0.173599 -0.112788
vt 0.918062 0.946336
vn -0.1284519 0.9348465 -0.3310018
v 0.048172 0.20528 -0.0309606
vn 0.07885503 0.9894993 -0.121132
v 0.038442 0.196641 -0.0726575
vt 0.898108 0.946336
vn 0.04128101 0.9654062 -0.2574621
vt 0.878154 0.926382
v -0.000467475 0.178844 -0.134492
vt 0.888131 0.946336
vn 0 0.9609858 -0.2765979
v 0.0981466 0.196641 -0.049488
vn 0.1806749 0.9685824 -0.1708939
v 0.111374 0.196816 0.0148033
vn 0.235172 0.971644 0.024539
v 0.0565056 0.202147 0.0295892
vn 0.110185 0.992801 0.0469637
v 0.102732 0.173599 -0.112788
vn 0.1284519 0.9348465 -0.3310018
v 0.0824251 0.196641 0.0766313
vn 0.206537 0.959549 0.191333
v 0.0213691 0.20329 0.0842074
vn 0.133853 0.9630719 0.233615
v 0.153384 0.178378 -0.0209539
vn 0.3473141 0.9348254 -0.07398923
v 0.0646987 0.177821 0.126588
vn 0.1476779 0.9071085 0.3941388
v 0.124858 0.175666 0.0723759
vn 0.4500488 0.8671895 0.2131629
vn 0.235172 -0.971644 -0.0245388
vn 0.110185 -0.992801 -0.0469637
vn 0.206537 -0.959549 -0.191333
vn 0.07498491 -0.989293 0.125206
vn 0.4500488 -0.8671895 -0.2131629
vn 0.1806751 -0.9685823 0.1708941
vn 0.3473141 -0.9348254 0.07398953
vn 0.133853 -0.9630719 -0.233615
vn 0.03867279 -0.9663637 0.2542549
vn 0.1476779 -0.9071085 -0.3941388
vn 0.1284519 -0.9348465 0.3310018
vn -0.04128101 -0.9654062 0.2574621
vn -0.07885503 -0.9894993 0.121132
vn 0 -0.9609858 0.2765979
vn -0.1806749 -0.9685824 0.1708939
vn -0.1284519 -0.9348465 0.3310018
vn -0.235172 -0.971644 -0.0245389
vn -0.110185 -0.992801 -0.0469637
vn -0.3473141 -0.9348254 0.07398923
vn -0.206537 -0.959549 -0.191333
vn -0.133853 -0.9630719 -0.233615
vn -0.4500488 -0.8671895 -0.2131629
vn -0.1476779 -0.9071085 -0.3941388
v 0 0.104282 -0.171629
vt 0.132746 0.117839
vn 0 0.09113447 -0.9958386
vt 0.0100065 0.188389
vt 0.255485 0.188389
vt 0.0222436 0.0114487
vt 0.243249 0.0114487
v 0 0.330961 0.190808
vt 0.149342 0.985357
v 0 0.285016 0.223113
vt 0.0135312 0.869729
v 0.0611565 0.291407 0.157733
vt 0.206814 0.883067
vn 0.6314849 0.4459929 0.6342849
v -0.0611565 0.291407 0.157733
vn -0.6314849 0.4459929 0.6342849
vn 0 -0.9397688 0.3418109
vn -0.4206179 -0.8525938 0.310104
v 0 0.266884 0.173262
vt 0.199451 0.770997
vn 0.4206179 -0.8525938 0.310104
o merged_0_0_node
g polygon_0
usemtl lambert3_mat_id
f 1/1/1 2/2/2 3/3/3
f 1/1/1 4/4/4 2/2/2
f 1/1/1 3/3/3 5/5/5
f 1/1/1 6/6/6 4/4/4
f 1/1/1 5/5/5 7/3/7
f 1/1/1 8/4/8 6/6/6
f 1/1/1 7/3/7 9/2/9
f 1/1/1 9/2/9 8/4/8
f 10/1/10 2/2/11 4/4/12
f 10/1/10 3/3/13 2/2/11
f 10/1/10 4/4/12 6/6/14
f 10/1/10 5/5/15 3/3/13
f 10/1/10 6/6/14 8/4/16
f 10/1/10 7/3/17 5/5/15
f 10/1/10 8/4/16 9/2/18
f 10/1/10 9/2/18 7/3/17
f 11/7/19 12/8/20 13/7/21
f 11/7/19 14/8/22 12/8/20
f 11/7/19 13/7/21 15/9/23
f 11/7/19 16/10/24 14/8/22
f 11/7/19 15/9/23 17/11/25
f 11/7/19 18/12/26 16/10/24
f 11/7/19 17/11/25 18/12/26
f 12/8/20 19/10/27 13/7/21
f 12/8/20 20/13/28 19/10/27
f 14/8/22 16/10/24 21/13/29
f 15/9/23 22/14/30 17/11/25
f 15/9/23 13/7/21 23/11/31
f 15/9/23 24/14/32 22/14/30
f 15/9/23 23/11/31 24/14/32
f 18/12/26 22/14/30 16/10/24
f 18/12/26 17/11/25 22/14/30
f 20/13/28 25/15/33 19/10/27
f 20/13/28 21/13/29 26/16/34
f 20/13/28 26/16/34 25/15/33
f 13/7/21 27/12/35 23/11/31
f 13/7/21 19/10/27 27/12/35
f 27/12/35 19/10/27 24/14/32
f 27/12/35 24/14/32 23/11/31
f 16/10/24 22/14/30 28/17/36
f 16/10/24 29/15/37 21/13/29
f 16/10/24 28/17/36 29/15/37
f 22/14/30 24/14/32 28/17/36
f 26/16/34 30/18/38 25/15/33
f 26/16/34 21/13/29 31/16/39
f 26/16/34 32/19/40 30/18/38
f 26/16/34 31/16/39 32/19/40
f 21/13/29 29/15/37 31/16/39
f 19/10/27 33/17/41 24/14/32
f 19/10/27 25/15/33 33/17/41
f 24/14/32 33/17/41 28/17/36
f 30/18/38 32/19/40 34/20/42
f 30/18/38 34/20/42 25/15/33
f 29/15/37 35/18/43 31/16/39
f 29/15/37 28/17/36 36/21/44
f 29/15/37 37/20/45 35/18/43
f 29/15/37 36/21/44 37/20/45
f 32/19/40 37/20/45 34/20/42
f 32/19/40 31/16/39 35/18/43
f 32/19/40 35/18/43 37/20/45
f 28/17/36 33/17/41 36/21/44
f 25/15/33 34/20/42 38/21/46
f 25/15/33 38/21/46 33/17/41
f 38/21/46 37/20/45 36/21/44
f 38/21/46 34/20/42 37/20/45
f 38/21/46 36/21/44 33/17/41
f 39/22/47 40/22/48 41/22/49
f 39/22/47 42/22/50 40/22/48
f 39/22/47 41/22/49 43/22/51
f 39/22/47 44/22/52 42/22/50
f 39/22/47 43/22/51 45/22/53
f 39/22/47 45/22/53 44/22/52
f 40/22/48 46/22/54 41/22/49
f 40/22/48 42/22/50 47/22/55
f 40/22/48 47/22/55 46/22/54
f 43/22/51 48/22/56 45/22/53
f 43/22/51 41/22/49 49/22/57
f 43/22/51 49/22/57 48/22/56
f 44/22/52 50/22/58 42/22/50
f 44/22/52 45/22/53 51/22/40
f 44/22/52 52/22/59 50/22/58
f 44/22/52 51/22/40 52/22/59
f 47/22/55 53/22/60 46/22/54
f 47/22/55 42/22/50 54/22/61
f 47/22/55 55/22/62 53/22/60
f 47/22/55 54/22/61 55/22/62
f 54/22/61 42/22/50 50/22/58
f 41/22/49 56/22/63 49/22/57
f 41/22/49 46/22/54 56/22/63
f 48/22/56 57/22/64 45/22/53
f 48/22/56 49/22/57 58/22/65
f 48/22/56 59/22/66 57/22/64
f 48/22/56 58/22/65 59/22/66
f 51/22/40 57/22/64 52/22/59
f 51/22/40 45/22/53 57/22/64
f 53/22/60 55/22/62 60/22/67
f 53/22/60 61/22/68 46/22/54
f 53/22/60 60/22/67 61/22/68
f 46/22/54 61/22/68 56/22/63
f 50/22/58 52/22/59 62/22/69
f 49/22/57 63/22/70 58/22/65
f 49/22/57 56/22/63 63/22/70
f 56/22/63 61/22/68 63/22/70
f 59/22/66 64/22/71 57/22/64
f 59/22/66 58/22/65 65/22/72
f 59/22/66 66/22/73 64/22/71
f 59/22/66 65/22/72 66/22/73
f 64/22/71 62/22/69 52/22/59
f 64/22/71 52/22/59 57/22/64
f 58/22/65 63/22/70 65/22/72
f 55/22/62 67/22/74 60/22/67
f 61/22/68 68/22/75 63/22/70
f 61/22/68 60/22/67 68/22/75
f 63/22/70 68/22/75 65/22/72
f 66/22/73 65/22/72 69/22/76
f 69/22/76 60/22/67 67/22/74
f 69/22/76 68/22/75 60/22/67
f 69/22/76 65/22/72 68/22/75
f 70/23/77 71/24/78 72/25/79
f 70/23/77 73/26/80 71/24/78
f 70/23/77 72/25/79 74/27/81
f 70/23/77 74/27/81 75/28/82
f 70/23/77 75/28/82 76/29/83
f 71/24/78 77/30/84 72/25/79
f 71/24/78 78/31/85 77/30/84
f 74/27/81 79/32/86 75/28/82
f 79/32/86 80/33/87 75/28/82
f 79/32/86 81/27/88 82/34/89
f 79/32/86 74/35/81 81/27/88
f 79/32/86 82/34/89 83/36/90
f 81/27/88 84/28/91 82/34/89
f 81/27/88 85/23/92 84/28/91
f 81/27/88 86/25/93 85/23/92
f 82/34/89 84/28/91 87/33/94
f 86/25/93 88/24/95 85/23/92
f 86/25/93 89/30/96 88/24/95
f 84/28/91 85/23/92 90/29/97
f 89/30/96 91/31/98 88/24/95
f 85/23/92 88/24/95 92/26/99
f 70/23/100 72/25/101 71/24/102
f 70/23/100 74/27/103 72/25/101
f 70/23/100 71/24/102 73/26/104
f 70/23/100 75/28/105 74/27/103
f 70/23/100 76/29/106 75/28/105
f 72/25/101 77/30/107 71/24/102
f 74/27/103 75/28/105 79/32/108
f 77/30/107 78/31/109 71/24/102
f 75/28/105 80/33/110 79/32/108
f 79/32/108 82/34/111 81/27/112
f 79/32/108 83/36/113 82/34/111
f 79/32/108 81/27/112 74/35/103
f 82/34/111 84/28/114 81/27/112
f 82/34/111 87/33/115 84/28/114
f 81/27/112 84/28/114 85/23/116
f 81/27/112 85/23/116 86/25/117
f 84/28/114 90/29/118 85/23/116
f 86/25/117 85/23/116 88/24/119
f 86/25/117 88/24/119 89/30/120
f 85/23/116 92/26/121 88/24/119
f 89/30/120 88/24/119 91/31/122
f 93/37/123 21/38/29 20/39/28
f 93/37/123 14/40/22 21/38/29
f 93/37/123 20/39/28 12/41/20
f 93/37/123 12/41/20 14/40/22
f 94/42/69 95/43/69 96/44/124
f 94/42/69 97/44/125 95/43/69
f 95/43/126 97/44/127 98/45/126
f 95/43/126 98/45/126 96/44/128
v -0.0758322 0.330961 0.17114
vt 0.321757 0.891354
vn -0.4297049 -0.0010468 0.9029688
vt -0.140562 1.03562
vn 0 0.584101 0.811681
vt 0.710029 1.05632
vt 1.07481 0.892114
v 0.0758322 0.330961 0.17114
vn 0.4297049 -0.00104681 0.9029688
vt 0.715675 0.739651
vt -0.182179 0.890528
vn 0 7.52671E-05 1
vt -0.135449 0.748839
o merged_1_0_node
g polygon_0
usemtl TEX_ANIM_EYE_mat_id
f 99/46/129 62/47/130 64/48/71
f 64/48/71 66/49/73 99/46/129
f 50/48/58 100/46/131 54/49/61
f 54/49/61 100/46/131 55/50/62
f 100/46/131 94/51/132 67/52/74
f 67/52/74 94/51/132 99/46/129
f 67/52/74 99/46/129 69/50/76
f 100/46/131 67/52/74 55/50/62
f 100/46/131 62/47/130 94/51/132
f 94/51/132 62/47/130 99/46/129
f 50/48/58 62/47/130 100/46/131
f 66/49/73 69/50/76 99/46/129
